<?xml version="1.0" encoding="utf-8"?>
<!-- Generator: Adobe Illustrator 20.1.0, SVG Export Plug-In . SVG Version: 6.00 Build 0)  -->
<svg version="1.1" id="Layer_1" xmlns="http://www.w3.org/2000/svg" xmlns:xlink="http://www.w3.org/1999/xlink" x="0px" y="0px"
	 viewBox="0 0 94.2 63.5" style="enable-background:new 0 0 94.2 63.5;" xml:space="preserve">
<style type="text/css">
	.st0{fill:#0089D0;}
</style>
<g id="card">
	<g>
		<path class="st0" d="M81.5,36.8c-1.1-4.8-5.4-8.3-10.5-8.3c-5.9,0-10.8,4.8-10.8,10.8C60.3,45.2,65.1,50,71,50
			c5.8,0,10.5-4.5,10.8-10.2 M71,47c-4.3,0-7.7-3.5-7.7-7.7c0-4.3,3.5-7.7,7.7-7.7c4.3,0,7.7,3.5,7.7,7.7C78.8,43.5,75.3,47,71,47z"
			/>
		<g id="numbers">
			<path d="M66.6,41.8v-3.3h-1.2v-0.8c0.2,0,0.3,0,0.5,0c0.2,0,0.3-0.1,0.4-0.2c0.1-0.1,0.2-0.2,0.3-0.3c0.1-0.1,0.1-0.3,0.2-0.5
				h0.8v5H66.6z"/>
			<path d="M69.1,37.9c0.1-0.2,0.2-0.5,0.3-0.6c0.1-0.2,0.3-0.3,0.6-0.4c0.2-0.1,0.5-0.2,0.8-0.2c0.2,0,0.4,0,0.6,0.1
				c0.2,0.1,0.4,0.2,0.5,0.3c0.2,0.1,0.3,0.3,0.4,0.5c0.1,0.2,0.1,0.4,0.1,0.7c0,0.3,0,0.5-0.1,0.7c-0.1,0.2-0.2,0.3-0.3,0.5
				c-0.1,0.1-0.3,0.3-0.4,0.4c-0.2,0.1-0.3,0.2-0.5,0.3c-0.2,0.1-0.3,0.2-0.5,0.4c-0.2,0.1-0.3,0.3-0.4,0.5h2.3v0.9h-3.6
				c0-0.3,0-0.5,0.1-0.8c0.1-0.2,0.2-0.4,0.3-0.6c0.1-0.2,0.3-0.3,0.5-0.5c0.2-0.1,0.4-0.3,0.6-0.4c0.1-0.1,0.2-0.2,0.3-0.2
				c0.1-0.1,0.2-0.2,0.3-0.3c0.1-0.1,0.2-0.2,0.2-0.3s0.1-0.3,0.1-0.4c0-0.2-0.1-0.4-0.2-0.6c-0.1-0.1-0.3-0.2-0.5-0.2
				c-0.1,0-0.3,0-0.4,0.1c-0.1,0.1-0.2,0.2-0.2,0.3C70,38,70,38.1,69.9,38.3c0,0.1,0,0.3,0,0.4H69C69,38.4,69,38.1,69.1,37.9z"/>
			<path d="M74.5,38.8c0.1,0,0.2,0,0.3-0.1c0.1,0,0.2-0.1,0.3-0.2c0.1-0.1,0.1-0.2,0.1-0.3c0-0.2-0.1-0.4-0.2-0.5
				c-0.1-0.1-0.3-0.2-0.5-0.2c-0.2,0-0.4,0.1-0.6,0.3c-0.1,0.2-0.2,0.4-0.2,0.6h-0.9c0-0.3,0.1-0.5,0.1-0.7c0.1-0.2,0.2-0.4,0.3-0.5
				c0.1-0.2,0.3-0.3,0.5-0.4c0.2-0.1,0.4-0.1,0.7-0.1c0.2,0,0.4,0,0.6,0.1c0.2,0.1,0.4,0.1,0.5,0.3c0.2,0.1,0.3,0.3,0.4,0.4
				c0.1,0.2,0.1,0.4,0.1,0.6c0,0.2-0.1,0.5-0.2,0.6c-0.1,0.2-0.3,0.3-0.5,0.4v0c0.3,0.1,0.5,0.2,0.6,0.4c0.2,0.2,0.2,0.5,0.2,0.7
				c0,0.3,0,0.5-0.1,0.7c-0.1,0.2-0.2,0.4-0.4,0.5c-0.2,0.1-0.4,0.2-0.6,0.3c-0.2,0.1-0.4,0.1-0.7,0.1c-0.3,0-0.5,0-0.7-0.1
				c-0.2-0.1-0.4-0.2-0.6-0.4c-0.2-0.2-0.3-0.3-0.4-0.6c-0.1-0.2-0.1-0.5-0.1-0.8h0.9c0,0.1,0,0.3,0.1,0.4c0,0.1,0.1,0.2,0.2,0.3
				c0.1,0.1,0.2,0.2,0.3,0.2c0.1,0.1,0.2,0.1,0.4,0.1c0.2,0,0.4-0.1,0.6-0.2c0.2-0.1,0.2-0.3,0.2-0.6c0-0.2,0-0.3-0.1-0.4
				c-0.1-0.1-0.2-0.2-0.3-0.2c-0.1,0-0.2-0.1-0.4-0.1c-0.1,0-0.3,0-0.4,0v-0.7C74.2,38.8,74.4,38.8,74.5,38.8z"/>
		</g>
	</g>
	<path d="M84.6,42.2v7c0,3.2-2.6,5.8-5.8,5.8H15.4c-3.2,0-5.8-2.6-5.8-5.8V24.8l75,0v20h2.6V14.4c0-4.6-3.7-8.3-8.3-8.3H15.4
		c-4.6,0-8.3,3.7-8.3,8.3v34.7c0,4.6,3.7,8.3,8.3,8.3h63.4c4.6,0,8.3-3.7,8.3-8.3v-7H84.6z M9.6,14.4c0-3.2,2.6-5.8,5.8-5.8h63.4
		c3.2,0,5.8,2.6,5.8,5.8v0.2h-75V14.4z"/>
	<path d="M58.7,34.8H16.9v9h41.9c-0.5-1.4-0.8-2.9-0.8-4.5C57.9,37.7,58.2,36.2,58.7,34.8z"/>
</g>
</svg>
